<svg width="36" height="36" viewBox="0 0 36 36" fill="none" xmlns="http://www.w3.org/2000/svg">
<circle cx="18" cy="18" r="17.5" fill="#D9D9D9" stroke="#1F1F1F"/>
<path d="M19.8323 20.0278H16.7578C15.8043 20.0278 15.3275 20.0278 14.9396 20.1522C14.0662 20.4322 13.3826 21.1548 13.1177 22.0781C13 22.4881 13 22.9921 13 24M21.5404 14.25C21.5404 16.0449 20.1639 17.5 18.4659 17.5C16.7678 17.5 15.3913 16.0449 15.3913 14.25C15.3913 12.4551 16.7678 11 18.4659 11C20.1639 11 21.5404 12.4551 21.5404 14.25Z" stroke="#1F1F1F" stroke-width="2" stroke-linecap="round" stroke-linejoin="round"/>
<path d="M17.1677 20.0278H20.2422C21.1957 20.0278 21.6725 20.0278 22.0604 20.1522C22.9338 20.4322 23.6174 21.1548 23.8823 22.0781C24 22.4881 24 22.9921 24 24M15.4596 14.25C15.4596 16.0449 16.8361 17.5 18.5341 17.5C20.2322 17.5 21.6087 16.0449 21.6087 14.25C21.6087 12.4551 20.2322 11 18.5341 11C16.8361 11 15.4596 12.4551 15.4596 14.25Z" stroke="#1F1F1F" stroke-width="2" stroke-linecap="round" stroke-linejoin="round"/>
</svg>
