<svg width="45" height="42" viewBox="0 0 45 42" fill="none" xmlns="http://www.w3.org/2000/svg">
<g filter="url(#filter0_d_46_39)">
<path d="M6 4.66667C6 3.73325 6 3.26654 6.18166 2.91002C6.34144 2.59641 6.59641 2.34144 6.91002 2.18166C7.26654 2 7.73325 2 8.66667 2H36.6667C37.6001 2 38.0668 2 38.4233 2.18166C38.7369 2.34144 38.9919 2.59641 39.1517 2.91002C39.3333 3.26654 39.3333 3.73325 39.3333 4.66667V5.78232C39.3333 6.23032 39.3333 6.45432 39.2786 6.6626C39.2301 6.84718 39.1502 7.02206 39.0425 7.1796C38.921 7.35739 38.7517 7.50409 38.4132 7.79749L27.7535 17.0358C27.415 17.3292 27.2457 17.4759 27.1242 17.6537C27.0164 17.8113 26.9366 17.9862 26.8881 18.1707C26.8333 18.379 26.8333 18.603 26.8333 19.051V27.764C26.8333 28.0899 26.8333 28.2529 26.7808 28.3938C26.7343 28.5183 26.6588 28.6299 26.5604 28.7192C26.4491 28.8204 26.2978 28.8809 25.9952 29.0019L20.3285 31.2686C19.7159 31.5136 19.4097 31.6361 19.1638 31.585C18.9488 31.5404 18.7601 31.4126 18.6388 31.2296C18.5 31.0203 18.5 30.6904 18.5 30.0306V19.051C18.5 18.603 18.5 18.379 18.4453 18.1707C18.3967 17.9862 18.3169 17.8113 18.2092 17.6537C18.0876 17.4759 17.9184 17.3292 17.5798 17.0358L6.92019 7.79749C6.58164 7.50409 6.41237 7.35739 6.29082 7.1796C6.18311 7.02206 6.10325 6.84718 6.05474 6.6626C6 6.45432 6 6.23032 6 5.78232V4.66667Z" stroke="#1F1F1F" stroke-width="3.33333" stroke-linecap="round" stroke-linejoin="round"/>
</g>
<defs>
<filter id="filter0_d_46_39" x="0.333008" y="0.333496" width="44.6674" height="40.9297" filterUnits="userSpaceOnUse" color-interpolation-filters="sRGB">
<feFlood flood-opacity="0" result="BackgroundImageFix"/>
<feColorMatrix in="SourceAlpha" type="matrix" values="0 0 0 0 0 0 0 0 0 0 0 0 0 0 0 0 0 0 127 0" result="hardAlpha"/>
<feOffset dy="4"/>
<feGaussianBlur stdDeviation="2"/>
<feComposite in2="hardAlpha" operator="out"/>
<feColorMatrix type="matrix" values="0 0 0 0 0 0 0 0 0 0 0 0 0 0 0 0 0 0 0.25 0"/>
<feBlend mode="normal" in2="BackgroundImageFix" result="effect1_dropShadow_46_39"/>
<feBlend mode="normal" in="SourceGraphic" in2="effect1_dropShadow_46_39" result="shape"/>
</filter>
</defs>
</svg>
