<svg width="39" height="38" viewBox="0 0 39 38" fill="none" xmlns="http://www.w3.org/2000/svg">
<g filter="url(#filter0_d_41_37)">
<path d="M19.1635 0.114244C19.0698 0.172832 15.8365 3.24285 11.9883 6.93975C6.41807 12.283 4.95375 13.7125 4.83075 13.9527C4.69603 14.1988 4.66675 14.3277 4.66675 14.6734C4.66675 15.1948 4.83661 15.5932 5.19976 15.8979C5.59805 16.2377 5.85577 16.2904 7.22637 16.2904H8.4154V22.4129C8.4154 28.4709 8.4154 28.5353 8.5384 28.8575C8.7024 29.2911 9.12413 29.7129 9.55756 29.877C9.87386 29.9941 9.98514 30 12.9138 30C15.8131 30 15.9478 29.9941 16.1118 29.8828C16.2114 29.8242 16.3461 29.6719 16.4223 29.5489L16.557 29.3262V25.102C16.557 21.5516 16.5687 20.8661 16.639 20.7665C16.721 20.6611 16.8206 20.6552 19.6613 20.6552C22.5021 20.6552 22.6017 20.6611 22.6837 20.7665C22.754 20.8661 22.7657 21.5516 22.7657 25.0962V29.3087L22.8946 29.543C22.9648 29.666 23.1113 29.8242 23.2108 29.8887C23.3924 30 23.4978 30 26.4968 29.9883L29.5894 29.9707L29.8823 29.8242C30.2806 29.6309 30.6379 29.2442 30.7843 28.8517C30.9073 28.5353 30.9073 28.4474 30.9073 22.4129V16.3021L32.2135 16.2787C33.6485 16.2552 33.7422 16.2377 34.1581 15.8744C34.6677 15.4233 34.8199 14.5621 34.4978 13.9527C34.3689 13.7125 32.9105 12.2888 27.3344 6.93975C23.4861 3.24285 20.2588 0.172832 20.1592 0.114244C19.9191 -0.038084 19.4036 -0.038084 19.1635 0.114244Z" fill="#1F1F1F"/>
</g>
<defs>
<filter id="filter0_d_41_37" x="0.666748" y="0" width="38" height="38" filterUnits="userSpaceOnUse" color-interpolation-filters="sRGB">
<feFlood flood-opacity="0" result="BackgroundImageFix"/>
<feColorMatrix in="SourceAlpha" type="matrix" values="0 0 0 0 0 0 0 0 0 0 0 0 0 0 0 0 0 0 127 0" result="hardAlpha"/>
<feOffset dy="4"/>
<feGaussianBlur stdDeviation="2"/>
<feComposite in2="hardAlpha" operator="out"/>
<feColorMatrix type="matrix" values="0 0 0 0 0 0 0 0 0 0 0 0 0 0 0 0 0 0 0.25 0"/>
<feBlend mode="normal" in2="BackgroundImageFix" result="effect1_dropShadow_41_37"/>
<feBlend mode="normal" in="SourceGraphic" in2="effect1_dropShadow_41_37" result="shape"/>
</filter>
</defs>
</svg>
