<svg width="25" height="16" viewBox="0 0 25 16" fill="none" xmlns="http://www.w3.org/2000/svg">
<path d="M7.52276 7.94444H4.58752C3.67723 7.94444 3.22208 7.94444 2.85172 8.04013C2.01785 8.25558 1.3653 8.81136 1.11235 9.52159C1 9.83703 1 10.2247 1 11M9.15345 3.5C9.15345 4.88071 7.8393 6 6.21821 6C4.59712 6 3.28297 4.88071 3.28297 3.5C3.28297 2.11929 4.59712 1 6.21821 1C7.8393 1 9.15345 2.11929 9.15345 3.5Z" stroke="#1F1F1F" stroke-width="1.5" stroke-linecap="round" stroke-linejoin="round"/>
<path d="M13.3932 11.9444H10.458C9.54771 11.9444 9.09256 11.9444 8.7222 12.0401C7.88833 12.2556 7.23578 12.8114 6.98283 13.5216C6.87048 13.837 6.87048 14.2247 6.87048 15M15.0239 7.5C15.0239 8.88071 13.7098 10 12.0887 10C10.4676 10 9.15345 8.88071 9.15345 7.5C9.15345 6.11929 10.4676 5 12.0887 5C13.7098 5 15.0239 6.11929 15.0239 7.5Z" stroke="#1F1F1F" stroke-width="1.5" stroke-linecap="round" stroke-linejoin="round"/>
<path d="M10.8493 11.9444H13.7846C14.6948 11.9444 15.15 11.9444 15.5204 12.0401C16.3542 12.2556 17.0068 12.8114 17.2597 13.5216C17.3721 13.837 17.3721 14.2247 17.3721 15M9.21862 7.5C9.21862 8.88071 10.5328 10 12.1539 10C13.775 10 15.0891 8.88071 15.0891 7.5C15.0891 6.11929 13.775 5 12.1539 5C10.5328 5 9.21862 6.11929 9.21862 7.5Z" stroke="#1F1F1F" stroke-width="1.5" stroke-linecap="round" stroke-linejoin="round"/>
<path d="M16.8493 7.94444H19.7845C20.6948 7.94444 21.15 7.94444 21.5204 8.04013C22.3542 8.25558 23.0068 8.81136 23.2597 9.52159C23.3721 9.83703 23.3721 10.2247 23.3721 11M15.2186 3.5C15.2186 4.88071 16.5328 6 18.1539 6C19.775 6 21.0891 4.88071 21.0891 3.5C21.0891 2.11929 19.775 1 18.1539 1C16.5328 1 15.2186 2.11929 15.2186 3.5Z" stroke="#1F1F1F" stroke-width="1.5" stroke-linecap="round" stroke-linejoin="round"/>
</svg>
