<svg width="140" height="140" viewBox="0 0 140 140" fill="none" xmlns="http://www.w3.org/2000/svg">
<circle cx="70" cy="70" r="69.5" fill="#D9D9D9" stroke="#1F1F1F"/>
<path d="M75.7082 79.4167H63.6895C59.9622 79.4167 58.0985 79.4167 56.5821 79.9047C53.1677 81.0034 50.4958 83.8379 49.46 87.4601C49 89.0688 49 91.0459 49 95M82.3852 56.75C82.3852 63.7916 77.0043 69.5 70.3665 69.5C63.7288 69.5 58.3479 63.7916 58.3479 56.75C58.3479 49.7084 63.7288 44 70.3665 44C77.0043 44 82.3852 49.7084 82.3852 56.75Z" stroke="#1F1F1F" stroke-width="2" stroke-linecap="round" stroke-linejoin="round"/>
<path d="M65.2918 79.4167H77.3105C81.0378 79.4167 82.9015 79.4167 84.4179 79.9047C87.8323 81.0034 90.5042 83.8379 91.54 87.4601C92 89.0688 92 91.0459 92 95M58.6148 56.75C58.6148 63.7916 63.9957 69.5 70.6335 69.5C77.2712 69.5 82.6521 63.7916 82.6521 56.75C82.6521 49.7084 77.2712 44 70.6335 44C63.9957 44 58.6148 49.7084 58.6148 56.75Z" stroke="#1F1F1F" stroke-width="2" stroke-linecap="round" stroke-linejoin="round"/>
</svg>
