<svg width="39" height="42" viewBox="0 0 39 42" fill="none" xmlns="http://www.w3.org/2000/svg">
<g filter="url(#filter0_d_42_60)">
<path d="M22.3334 22.8333H14.8334C12.5075 22.8333 11.3445 22.8333 10.3982 23.1204C8.26751 23.7667 6.60015 25.4341 5.95381 27.5648C5.66675 28.5111 5.66675 29.6741 5.66675 32M26.5001 9.5C26.5001 13.6421 23.1422 17 19.0001 17C14.8579 17 11.5001 13.6421 11.5001 9.5C11.5001 5.35786 14.8579 2 19.0001 2C23.1422 2 26.5001 5.35786 26.5001 9.5Z" stroke="#1F1F1F" stroke-width="3.33333" stroke-linecap="round" stroke-linejoin="round"/>
<path d="M15.8333 22.8333H23.3333C25.6593 22.8333 26.8222 22.8333 27.7686 23.1204C29.8992 23.7667 31.5666 25.4341 32.2129 27.5648C32.5 28.5111 32.5 29.6741 32.5 32M11.6667 9.5C11.6667 13.6421 15.0245 17 19.1667 17C23.3088 17 26.6667 13.6421 26.6667 9.5C26.6667 5.35786 23.3088 2 19.1667 2C15.0245 2 11.6667 5.35786 11.6667 9.5Z" stroke="#1F1F1F" stroke-width="3.33333" stroke-linecap="round" stroke-linejoin="round"/>
</g>
<defs>
<filter id="filter0_d_42_60" x="0" y="0.333496" width="38.1667" height="41.333" filterUnits="userSpaceOnUse" color-interpolation-filters="sRGB">
<feFlood flood-opacity="0" result="BackgroundImageFix"/>
<feColorMatrix in="SourceAlpha" type="matrix" values="0 0 0 0 0 0 0 0 0 0 0 0 0 0 0 0 0 0 127 0" result="hardAlpha"/>
<feOffset dy="4"/>
<feGaussianBlur stdDeviation="2"/>
<feComposite in2="hardAlpha" operator="out"/>
<feColorMatrix type="matrix" values="0 0 0 0 0 0 0 0 0 0 0 0 0 0 0 0 0 0 0.25 0"/>
<feBlend mode="normal" in2="BackgroundImageFix" result="effect1_dropShadow_42_60"/>
<feBlend mode="normal" in="SourceGraphic" in2="effect1_dropShadow_42_60" result="shape"/>
</filter>
</defs>
</svg>
