<svg width="37" height="37" viewBox="0 0 37 37" fill="none" xmlns="http://www.w3.org/2000/svg">
<path d="M18.6667 23.6667C21.4281 23.6667 23.6667 21.4281 23.6667 18.6667C23.6667 15.9052 21.4281 13.6667 18.6667 13.6667C15.9052 13.6667 13.6667 15.9052 13.6667 18.6667C13.6667 21.4281 15.9052 23.6667 18.6667 23.6667Z" stroke="#1F1F1F" stroke-width="3.33333" stroke-linecap="round" stroke-linejoin="round"/>
<path d="M29.8788 23.2121C29.6771 23.6691 29.6169 24.1761 29.7061 24.6676C29.7952 25.1591 30.0295 25.6126 30.3788 25.9697L30.4697 26.0606C30.7514 26.342 30.975 26.6762 31.1275 27.0441C31.28 27.412 31.3584 27.8063 31.3584 28.2045C31.3584 28.6028 31.28 28.9971 31.1275 29.365C30.975 29.7328 30.7514 30.0671 30.4697 30.3485C30.1883 30.6302 29.8541 30.8537 29.4862 31.0062C29.1183 31.1587 28.724 31.2372 28.3258 31.2372C27.9275 31.2372 27.5332 31.1587 27.1653 31.0062C26.7975 30.8537 26.4633 30.6302 26.1818 30.3485L26.0909 30.2576C25.7338 29.9083 25.2803 29.674 24.7888 29.5848C24.2973 29.4957 23.7903 29.5559 23.3333 29.7576C22.8852 29.9496 22.503 30.2686 22.2338 30.6751C21.9646 31.0816 21.8201 31.5579 21.8182 32.0455V32.303C21.8182 33.1067 21.4989 33.8775 20.9306 34.4458C20.3623 35.0141 19.5916 35.3333 18.7879 35.3333C17.9842 35.3333 17.2134 35.0141 16.6451 34.4458C16.0768 33.8775 15.7576 33.1067 15.7576 32.303V32.1667C15.7458 31.6652 15.5835 31.1788 15.2917 30.7708C14.9999 30.3627 14.592 30.0519 14.1212 29.8788C13.6642 29.6771 13.1573 29.6169 12.6658 29.7061C12.1743 29.7952 11.7207 30.0295 11.3636 30.3788L11.2727 30.4697C10.9913 30.7514 10.6571 30.975 10.2892 31.1275C9.92134 31.28 9.52702 31.3584 9.12879 31.3584C8.73056 31.3584 8.33624 31.28 7.96836 31.1275C7.60049 30.975 7.26628 30.7514 6.98485 30.4697C6.7031 30.1883 6.47959 29.8541 6.32709 29.4862C6.17459 29.1183 6.0961 28.724 6.0961 28.3258C6.0961 27.9275 6.17459 27.5332 6.32709 27.1653C6.47959 26.7975 6.7031 26.4633 6.98485 26.1818L7.07576 26.0909C7.42506 25.7338 7.65937 25.2803 7.74849 24.7888C7.83761 24.2973 7.77745 23.7903 7.57576 23.3333C7.38369 22.8852 7.06478 22.503 6.65828 22.2338C6.25178 21.9646 5.77543 21.8201 5.28788 21.8182H5.0303C4.22662 21.8182 3.45585 21.4989 2.88756 20.9306C2.31926 20.3623 2 19.5916 2 18.7879C2 17.9842 2.31926 17.2134 2.88756 16.6451C3.45585 16.0768 4.22662 15.7576 5.0303 15.7576H5.16667C5.66817 15.7458 6.15455 15.5835 6.56257 15.2917C6.9706 14.9999 7.28139 14.592 7.45455 14.1212C7.65624 13.6642 7.7164 13.1573 7.62728 12.6658C7.53816 12.1743 7.30384 11.7207 6.95455 11.3636L6.86364 11.2727C6.58189 10.9913 6.35838 10.6571 6.20588 10.2892C6.05338 9.92134 5.97489 9.52702 5.97489 9.12879C5.97489 8.73056 6.05338 8.33624 6.20588 7.96836C6.35838 7.60049 6.58189 7.26628 6.86364 6.98485C7.14507 6.7031 7.47928 6.47959 7.84715 6.32709C8.21502 6.17459 8.60935 6.0961 9.00758 6.0961C9.4058 6.0961 9.80013 6.17459 10.168 6.32709C10.5359 6.47959 10.8701 6.7031 11.1515 6.98485L11.2424 7.07576C11.5995 7.42506 12.0531 7.65937 12.5446 7.74849C13.0361 7.83761 13.543 7.77745 14 7.57576H14.1212C14.5693 7.38369 14.9515 7.06478 15.2207 6.65828C15.49 6.25178 15.6344 5.77543 15.6364 5.28788V5.0303C15.6364 4.22662 15.9556 3.45585 16.5239 2.88756C17.0922 2.31926 17.863 2 18.6667 2C19.4704 2 20.2411 2.31926 20.8094 2.88756C21.3777 3.45585 21.697 4.22662 21.697 5.0303V5.16667C21.6989 5.65422 21.8434 6.13057 22.1126 6.53707C22.3818 6.94357 22.764 7.26248 23.2121 7.45455C23.6691 7.65624 24.1761 7.7164 24.6676 7.62728C25.1591 7.53816 25.6126 7.30384 25.9697 6.95455L26.0606 6.86364C26.342 6.58189 26.6762 6.35838 27.0441 6.20588C27.412 6.05338 27.8063 5.97489 28.2045 5.97489C28.6028 5.97489 28.9971 6.05338 29.365 6.20588C29.7328 6.35838 30.0671 6.58189 30.3485 6.86364C30.6302 7.14507 30.8537 7.47928 31.0062 7.84715C31.1587 8.21502 31.2372 8.60935 31.2372 9.00758C31.2372 9.4058 31.1587 9.80013 31.0062 10.168C30.8537 10.5359 30.6302 10.8701 30.3485 11.1515L30.2576 11.2424C29.9083 11.5995 29.674 12.0531 29.5848 12.5446C29.4957 13.0361 29.5559 13.543 29.7576 14V14.1212C29.9496 14.5693 30.2686 14.9515 30.6751 15.2207C31.0816 15.49 31.5579 15.6344 32.0455 15.6364H32.303C33.1067 15.6364 33.8775 15.9556 34.4458 16.5239C35.0141 17.0922 35.3333 17.863 35.3333 18.6667C35.3333 19.4704 35.0141 20.2411 34.4458 20.8094C33.8775 21.3777 33.1067 21.697 32.303 21.697H32.1667C31.6791 21.6989 31.2028 21.8434 30.7963 22.1126C30.3898 22.3818 30.0709 22.764 29.8788 23.2121Z" stroke="#1F1F1F" stroke-width="3.33333" stroke-linecap="round" stroke-linejoin="round"/>
</svg>
